<svg xmlns="http://www.w3.org/2000/svg" version="1.1" xmlns:xlink="http://www.w3.org/1999/xlink" xmlns:svgjs="http://svgjs.dev/svgjs" width="1000" height="1000" viewBox="0 0 1000 1000"><rect width="1000" height="1000" fill="#000000"></rect><g transform="matrix(0.7,0,0,0.7,149.89982649670208,380.084775263637)"><svg viewBox="0 0 396 137" data-background-color="#ffffff" preserveAspectRatio="xMidYMid meet" height="345" width="1000" xmlns="http://www.w3.org/2000/svg" xmlns:xlink="http://www.w3.org/1999/xlink"><g id="tight-bounds" transform="matrix(1,0,0,1,0.30531250962727086,0.18273366249303535)"><svg viewBox="0 0 395.5199999999999 136.90899472949133" height="136.90899472949133" width="395.5199999999999"><g><svg viewBox="0 0 646.6734284218991 223.84559315209316" height="136.90899472949133" width="395.5199999999999"><g transform="matrix(1,0,0,1,251.1534284218991,30.936691962409412)"><svg viewBox="0 0 395.52 161.97220922727433" height="161.97220922727433" width="395.52"><g id="textblocktransform"><svg viewBox="0 0 395.52 161.97220922727433" height="161.97220922727433" width="395.52" id="textblock"><g><svg viewBox="0 0 395.52 113.9361505560308" height="113.9361505560308" width="395.52"><g transform="matrix(1,0,0,1,0,0)"><svg width="395.52" viewBox="1.0499999523162842 -32.150001525878906 114.14999389648438 32.880001068115234" height="113.9361505560308" data-palette-color="#000000"><g class="wordmark-text-0" data-fill-palette-color="primary" id="text-0"><path d="M5.91-30.37L5.37-28.52 9.69-27.49 5.81-2.95 1.54-1.81 1.05 0 15.5 0 16.14-2.05 10.5-2.98 12.26-14.11 18.97-14.11 19.07-9.72 21.29-10.08 23.12-19.63 20.9-19.31 19.65-16.36 12.62-16.36 14.45-28.15 25.81-28.15 26.39-22.85 28.49-22.53 30.18-30.37 5.91-30.37ZM45.85-12.57Q45.85-14.99 45.09-17.09 44.33-19.19 42.77-20.5 41.21-21.8 38.94-21.8L38.94-21.8Q35.81-21.8 33.27-19.92 30.73-18.04 29.29-14.98 27.85-11.91 27.85-8.47L27.85-8.47Q27.85-5.88 28.66-3.82 29.47-1.76 31.06-0.56 32.66 0.63 34.91 0.63L34.91 0.63Q38.03 0.63 40.54-1.27 43.04-3.17 44.44-6.23 45.85-9.28 45.85-12.57L45.85-12.57ZM36.45-2.29Q35.15-2.29 34.12-3.11 33.08-3.93 32.48-5.55 31.88-7.18 31.88-9.47L31.88-9.47Q31.88-12.48 32.53-14.61 33.18-16.75 34.32-17.83 35.47-18.92 36.98-18.92L36.98-18.92Q39.45-18.92 40.62-16.81 41.79-14.7 41.79-11.52L41.79-11.52Q41.79-7.2 40.4-4.75 39.01-2.29 36.45-2.29L36.45-2.29ZM65.84-12.57Q65.84-14.99 65.08-17.09 64.33-19.19 62.76-20.5 61.2-21.8 58.93-21.8L58.93-21.8Q55.81-21.8 53.27-19.92 50.73-18.04 49.29-14.98 47.85-11.91 47.85-8.47L47.85-8.47Q47.85-5.88 48.65-3.82 49.46-1.76 51.06-0.56 52.66 0.63 54.9 0.63L54.9 0.63Q58.03 0.63 60.53-1.27 63.03-3.17 64.44-6.23 65.84-9.28 65.84-12.57L65.84-12.57ZM56.44-2.29Q55.15-2.29 54.11-3.11 53.07-3.93 52.47-5.55 51.87-7.18 51.87-9.47L51.87-9.47Q51.87-12.48 52.52-14.61 53.17-16.75 54.32-17.83 55.46-18.92 56.98-18.92L56.98-18.92Q59.44-18.92 60.62-16.81 61.79-14.7 61.79-11.52L61.79-11.52Q61.79-7.2 60.4-4.75 59-2.29 56.44-2.29L56.44-2.29ZM83.64-32.15Q81.56-32.15 79.9-31.35L79.9-31.35 79.68-29.39 80.71-29.42Q81.78-29.42 82.34-29.09 82.9-28.76 82.9-27.76L82.9-27.76Q82.9-27.49 82.88-27.34L82.88-27.34 82.19-21.51 82.05-21.51Q81.73-21.58 81.05-21.58L81.05-21.58Q77.82-21.58 74.76-19.82 71.7-18.07 69.76-14.75 67.81-11.43 67.81-6.98L67.81-6.98Q67.81-3.25 69.26-1.37 70.7 0.51 73.19 0.51L73.19 0.51Q74.97 0.51 76.52-0.48 78.07-1.46 78.95-2.98L78.95-2.98 79.26-2.98Q79.14-2.37 79.14-1.81L79.14-1.81Q79.19-0.83 79.89-0.23 80.58 0.37 82.05 0.37L82.05 0.37Q82.95 0.37 83.76 0.15 84.56-0.07 85.44-0.42L85.44-0.42 85.91-2.1 84.29-2.37Q83.71-2.47 83.48-2.77 83.24-3.08 83.24-3.91L83.24-3.91Q83.24-5.15 83.9-9.28L83.9-9.28 86.74-27.44Q86.91-28.39 86.91-29.27L86.91-29.27Q86.91-30.74 86.17-31.45 85.44-32.15 83.64-32.15L83.64-32.15ZM75.07-2.59Q73.38-2.59 72.59-3.92 71.79-5.25 71.79-8.23L71.79-8.23Q71.79-11.08 72.62-13.57 73.45-16.06 74.93-17.57 76.41-19.07 78.24-19.07L78.24-19.07Q79.29-19.07 79.97-18.77 80.66-18.48 81.32-17.97L81.32-17.97 79.31-4.91Q78.48-3.78 77.48-3.19 76.48-2.59 75.07-2.59L75.07-2.59ZM93.35-28.74Q93.35-27.64 94.13-26.87 94.91-26.1 95.99-26.1L95.99-26.1Q97.21-26.1 98.05-26.87 98.89-27.64 98.89-28.78L98.89-28.78Q98.89-29.96 98.12-30.75 97.35-31.54 96.25-31.54L96.25-31.54Q95.42-31.54 94.75-31.15 94.08-30.76 93.72-30.11 93.35-29.47 93.35-28.74L93.35-28.74ZM89.42-18.87L90.44-18.9Q91.54-18.9 92.1-18.59 92.67-18.29 92.67-17.38L92.67-17.38Q92.67-17.21 92.62-16.82L92.62-16.82 90.88-4.74Q90.74-3.69 90.74-2.86L90.74-2.86Q90.74-1.12 91.54-0.35 92.35 0.42 94.25 0.42L94.25 0.42Q95.2 0.42 96.14 0.18 97.08-0.05 97.7-0.37L97.7-0.37 97.89-2.34Q96.84-2.32 96.22-2.4 95.6-2.49 95.19-2.91 94.79-3.32 94.79-4.2L94.79-4.2Q94.79-4.93 94.92-6.04 95.06-7.15 95.35-9.23L95.35-9.23 96.47-16.92Q96.62-17.92 96.62-18.73L96.62-18.73Q96.62-20.21 95.9-20.92 95.18-21.63 93.37-21.63L93.37-21.63Q91.3-21.63 89.64-20.83L89.64-20.83 89.42-18.87ZM106.51 0.73Q108.07 0.73 109.59 0.12 111.12-0.49 112.3-1.4 113.49-2.32 114.07-3.22L114.07-3.22 113.44-4.32Q112.68-3.66 111.28-3.08 109.88-2.49 108.07-2.49L108.07-2.49Q106.16-2.49 105.3-3.83 104.43-5.18 104.43-7.79L104.43-7.79Q104.43-8.2 104.48-9.18L104.48-9.18Q109-9.06 112.1-10.77 115.2-12.48 115.2-16.89L115.2-16.89Q115.2-19.12 113.99-20.42 112.78-21.73 110.75-21.73L110.75-21.73Q108.07-21.73 105.69-19.71 103.31-17.7 101.88-14.32 100.45-10.94 100.45-7.06L100.45-7.06Q100.45 0.73 106.51 0.73L106.51 0.73ZM109.29-19.48Q110.31-19.48 110.93-18.52 111.54-17.55 111.54-16.19L111.54-16.19Q111.54-14.09 110.62-12.94 109.7-11.79 108.23-11.39 106.75-10.99 104.7-10.96L104.7-10.96Q104.85-14.14 105.57-16.04 106.29-17.94 107.26-18.71 108.24-19.48 109.29-19.48L109.29-19.48Z" fill="#ffffff" data-fill-palette-color="primary"></path></g></svg></g></svg></g><g transform="matrix(1,0,0,1,0,140.83374123469633)"><svg viewBox="0 0 232.209792 21.138467992578015" height="21.138467992578015" width="232.209792"><g transform="matrix(1,0,0,1,0,0)"><svg width="232.209792" viewBox="1.4900000095367432 -31.8799991607666 434.1500244140625 39.52000045776367" height="21.138467992578015" data-palette-color="#000000"><path d="M16.06 0.76Q19.8 0.76 22.62 0.12 25.44-0.51 27.81-1.93L27.81-1.93 27.81-10.72 30.83-11.72 31.13-13.55 17.55-13.55 17.26-11.52 23.02-10.6 23.02-2.91Q22.34-2.51 21.23-2.2 20.12-1.88 18.82-1.88L18.82-1.88Q15.09-1.88 12.35-3.81 9.62-5.74 8.18-8.91 6.74-12.08 6.74-15.8L6.74-15.8Q6.74-20.09 8.04-22.9 9.35-25.71 11.56-27.03 13.77-28.34 16.53-28.34L16.53-28.34Q19.26-28.34 21.2-27.5 23.14-26.66 24.22-25.56L24.22-25.56 25.1-20.9 27.22-20.53 27.81-28.39Q26.03-29.52 23.51-30.14 21-30.76 17.99-30.76L17.99-30.76Q13.75-30.76 9.95-28.74 6.15-26.71 3.82-22.92 1.49-19.14 1.49-14.11L1.49-14.11Q1.49-9.84 3.13-6.48 4.76-3.13 8.03-1.18 11.3 0.76 16.06 0.76L16.06 0.76ZM42.45 0.66Q45.29 0.66 47.63-0.78 49.97-2.22 51.33-4.83 52.68-7.45 52.68-10.77L52.68-10.77Q52.68-14.11 51.52-16.66 50.36-19.21 48.18-20.63 45.99-22.05 43.04-22.05L43.04-22.05Q40.26-22.05 37.83-20.65 35.4-19.26 33.91-16.61 32.42-13.96 32.42-10.4L32.42-10.4Q32.42-7.23 33.6-4.72 34.79-2.22 37.05-0.78 39.3 0.66 42.45 0.66L42.45 0.66ZM42.01-19.48Q44.19-19.48 45.62-17.88 47.04-16.28 47.69-13.84 48.34-11.4 48.34-8.76L48.34-8.76Q48.34-6.96 47.78-5.35 47.21-3.74 46.07-2.72 44.92-1.71 43.28-1.71L43.28-1.71Q41.01-1.71 39.55-3.2 38.08-4.69 37.42-7.06 36.77-9.42 36.77-12.13L36.77-12.13Q36.77-14.14 37.33-15.81 37.89-17.48 39.07-18.48 40.26-19.48 42.01-19.48L42.01-19.48ZM65.25 0.66Q68.09 0.66 70.43-0.78 72.77-2.22 74.13-4.83 75.48-7.45 75.48-10.77L75.48-10.77Q75.48-14.11 74.32-16.66 73.16-19.21 70.98-20.63 68.79-22.05 65.84-22.05L65.84-22.05Q63.06-22.05 60.63-20.65 58.2-19.26 56.71-16.61 55.22-13.96 55.22-10.4L55.22-10.4Q55.22-7.23 56.4-4.72 57.59-2.22 59.85-0.78 62.1 0.66 65.25 0.66L65.25 0.66ZM64.81-19.48Q66.99-19.48 68.42-17.88 69.84-16.28 70.49-13.84 71.14-11.4 71.14-8.76L71.14-8.76Q71.14-6.96 70.58-5.35 70.01-3.74 68.87-2.72 67.72-1.71 66.08-1.71L66.08-1.71Q63.81-1.71 62.35-3.2 60.88-4.69 60.22-7.06 59.57-9.42 59.57-12.13L59.57-12.13Q59.57-14.14 60.13-15.81 60.69-17.48 61.87-18.48 63.06-19.48 64.81-19.48L64.81-19.48ZM86.03 0.51Q88.35 0.51 89.96-0.51 91.57-1.54 92.79-3.2L92.79-3.2 93.01-3.2 93.01-3.03Q93.01-1.44 93.95-0.44 94.89 0.56 96.65 0.56L96.65 0.56Q97.75 0.56 98.44 0.48 99.14 0.39 100.24 0.1L100.24 0.1 100.51-1.93 99.41-2.17Q98.36-2.42 97.86-2.62 97.36-2.83 97.05-3.43 96.75-4.03 96.75-5.25L96.75-5.25 96.75-31.03 96.23-31.62 89.45-31.03 89.1-29.2 92.81-27.86 92.81-24.02 93.11-20.9 92.94-20.9Q92.33-21.34 91.13-21.66 89.93-21.97 88.74-21.97L88.74-21.97Q86.2-21.97 83.72-20.36 81.24-18.75 79.66-15.94 78.07-13.13 78.07-9.74L78.07-9.74Q78.07-6.49 79.13-4.17 80.19-1.86 82.01-0.67 83.83 0.51 86.03 0.51L86.03 0.51ZM87.57-19.58Q88.86-19.58 90.36-18.68 91.86-17.77 92.79-16.26L92.79-16.26 92.79-4.81Q92.08-3.98 90.63-3.27 89.18-2.56 87.76-2.56L87.76-2.56Q86.2-2.56 84.98-3.55 83.76-4.54 83.06-6.51 82.37-8.47 82.37-11.28L82.37-11.28Q82.37-15.06 83.61-17.32 84.86-19.58 87.57-19.58L87.57-19.58ZM109.51-28.52L113.95-27.49 113.95-2.95 109.88-1.81 109.68 0 124.11 0 124.43-2.03 118.69-2.98 118.69-14.11 125.38-14.11 126.11-9.72 128.26-10.06 128.92-19.63 126.72-19.29 125.7-16.36 118.69-16.36 118.69-28.13 130.04-28.13 130.87-22.85 133.02-22.51 134.02-30.37 109.78-30.37 109.51-28.52ZM144.69 0.66Q147.52 0.66 149.86-0.78 152.21-2.22 153.56-4.83 154.92-7.45 154.92-10.77L154.92-10.77Q154.92-14.11 153.76-16.66 152.6-19.21 150.41-20.63 148.23-22.05 145.27-22.05L145.27-22.05Q142.49-22.05 140.06-20.65 137.63-19.26 136.14-16.61 134.65-13.96 134.65-10.4L134.65-10.4Q134.65-7.23 135.84-4.72 137.02-2.22 139.28-0.78 141.54 0.66 144.69 0.66L144.69 0.66ZM144.25-19.48Q146.42-19.48 147.85-17.88 149.28-16.28 149.92-13.84 150.57-11.4 150.57-8.76L150.57-8.76Q150.57-6.96 150.01-5.35 149.45-3.74 148.3-2.72 147.15-1.71 145.52-1.71L145.52-1.71Q143.25-1.71 141.78-3.2 140.32-4.69 139.66-7.06 139-9.42 139-12.13L139-12.13Q139-14.14 139.56-15.81 140.12-17.48 141.31-18.48 142.49-19.48 144.25-19.48L144.25-19.48ZM167.49 0.66Q170.32 0.66 172.66-0.78 175.01-2.22 176.36-4.83 177.72-7.45 177.72-10.77L177.72-10.77Q177.72-14.11 176.56-16.66 175.4-19.21 173.21-20.63 171.03-22.05 168.07-22.05L168.07-22.05Q165.29-22.05 162.86-20.65 160.43-19.26 158.94-16.61 157.45-13.96 157.45-10.4L157.45-10.4Q157.45-7.23 158.64-4.72 159.82-2.22 162.08-0.78 164.34 0.66 167.49 0.66L167.49 0.66ZM167.05-19.48Q169.22-19.48 170.65-17.88 172.08-16.28 172.72-13.84 173.37-11.4 173.37-8.76L173.37-8.76Q173.37-6.96 172.81-5.35 172.25-3.74 171.1-2.72 169.95-1.71 168.32-1.71L168.32-1.71Q166.05-1.71 164.58-3.2 163.12-4.69 162.46-7.06 161.8-9.42 161.8-12.13L161.8-12.13Q161.8-14.14 162.36-15.81 162.92-17.48 164.11-18.48 165.29-19.48 167.05-19.48L167.05-19.48ZM188.26 0.51Q190.58 0.51 192.19-0.51 193.8-1.54 195.02-3.2L195.02-3.2 195.24-3.2 195.24-3.03Q195.24-1.44 196.18-0.44 197.12 0.56 198.88 0.56L198.88 0.56Q199.98 0.56 200.68 0.48 201.37 0.39 202.47 0.1L202.47 0.1 202.74-1.93 201.64-2.17Q200.59-2.42 200.09-2.62 199.59-2.83 199.28-3.43 198.98-4.03 198.98-5.25L198.98-5.25 198.98-31.03 198.47-31.62 191.68-31.03 191.34-29.2 195.05-27.86 195.05-24.02 195.34-20.9 195.17-20.9Q194.56-21.34 193.36-21.66 192.17-21.97 190.97-21.97L190.97-21.97Q188.43-21.97 185.95-20.36 183.48-18.75 181.89-15.94 180.3-13.13 180.3-9.74L180.3-9.74Q180.3-6.49 181.36-4.17 182.43-1.86 184.25-0.67 186.06 0.51 188.26 0.51L188.26 0.51ZM189.8-19.58Q191.09-19.58 192.59-18.68 194.1-17.77 195.02-16.26L195.02-16.26 195.02-4.81Q194.32-3.98 192.86-3.27 191.41-2.56 189.99-2.56L189.99-2.56Q188.43-2.56 187.21-3.55 185.99-4.54 185.29-6.51 184.6-8.47 184.6-11.28L184.6-11.28Q184.6-15.06 185.84-17.32 187.09-19.58 189.8-19.58L189.8-19.58ZM204.96 7.64Q209.21 6.52 210.68 4.33 212.16 2.15 212.16-0.24L212.16-0.24Q212.16-1.95 211.49-3.1 210.82-4.25 209.84-4.79 208.86-5.32 207.91-5.32L207.91-5.32Q207.25-5.32 206.56-4.98 205.86-4.64 205.4-3.97 204.93-3.3 204.93-2.37L204.93-2.37Q204.93-1.73 205.28-0.83L205.28-0.83Q205.76-0.88 206.01-0.88L206.01-0.88Q207.25-0.88 208.05-0.11 208.84 0.66 208.84 1.71L208.84 1.71Q208.84 3 207.74 4.19 206.64 5.37 204.4 5.96L204.4 5.96 204.96 7.64ZM229.74 0.76Q233.47 0.76 236.29 0.12 239.11-0.51 241.48-1.93L241.48-1.93 241.48-10.72 244.51-11.72 244.8-13.55 231.23-13.55 230.93-11.52 236.69-10.6 236.69-2.91Q236.01-2.51 234.9-2.2 233.79-1.88 232.49-1.88L232.49-1.88Q228.76-1.88 226.02-3.81 223.29-5.74 221.85-8.91 220.41-12.08 220.41-15.8L220.41-15.8Q220.41-20.09 221.72-22.9 223.02-25.71 225.23-27.03 227.44-28.34 230.2-28.34L230.2-28.34Q232.93-28.34 234.87-27.5 236.82-26.66 237.89-25.56L237.89-25.56 238.77-20.9 240.89-20.53 241.48-28.39Q239.7-29.52 237.18-30.14 234.67-30.76 231.66-30.76L231.66-30.76Q227.42-30.76 223.62-28.74 219.82-26.71 217.49-22.92 215.16-19.14 215.16-14.11L215.16-14.11Q215.16-9.84 216.8-6.48 218.43-3.13 221.7-1.18 224.98 0.76 229.74 0.76L229.74 0.76ZM256.12 0.66Q258.96 0.66 261.3-0.78 263.64-2.22 265-4.83 266.35-7.45 266.35-10.77L266.35-10.77Q266.35-14.11 265.19-16.66 264.04-19.21 261.85-20.63 259.66-22.05 256.71-22.05L256.71-22.05Q253.93-22.05 251.5-20.65 249.07-19.26 247.58-16.61 246.09-13.96 246.09-10.4L246.09-10.4Q246.09-7.23 247.27-4.72 248.46-2.22 250.72-0.78 252.98 0.66 256.12 0.66L256.12 0.66ZM255.69-19.48Q257.86-19.48 259.29-17.88 260.71-16.28 261.36-13.84 262.01-11.4 262.01-8.76L262.01-8.76Q262.01-6.96 261.45-5.35 260.89-3.74 259.74-2.72 258.59-1.71 256.95-1.71L256.95-1.71Q254.68-1.71 253.22-3.2 251.75-4.69 251.1-7.06 250.44-9.42 250.44-12.13L250.44-12.13Q250.44-14.14 251-15.81 251.56-17.48 252.74-18.48 253.93-19.48 255.69-19.48L255.69-19.48ZM278.93 0.66Q281.76 0.66 284.1-0.78 286.44-2.22 287.8-4.83 289.15-7.45 289.15-10.77L289.15-10.77Q289.15-14.11 287.99-16.66 286.84-19.21 284.65-20.63 282.47-22.05 279.51-22.05L279.51-22.05Q276.73-22.05 274.3-20.65 271.87-19.26 270.38-16.61 268.89-13.96 268.89-10.4L268.89-10.4Q268.89-7.23 270.07-4.72 271.26-2.22 273.52-0.78 275.78 0.66 278.93 0.66L278.93 0.66ZM278.49-19.48Q280.66-19.48 282.09-17.88 283.51-16.28 284.16-13.84 284.81-11.4 284.81-8.76L284.81-8.76Q284.81-6.96 284.25-5.35 283.69-3.74 282.54-2.72 281.39-1.71 279.76-1.71L279.76-1.71Q277.48-1.71 276.02-3.2 274.55-4.69 273.9-7.06 273.24-9.42 273.24-12.13L273.24-12.13Q273.24-14.14 273.8-15.81 274.36-17.48 275.54-18.48 276.73-19.48 278.49-19.48L278.49-19.48ZM299.7 0.51Q302.02 0.51 303.63-0.51 305.24-1.54 306.46-3.2L306.46-3.2 306.68-3.2 306.68-3.03Q306.68-1.44 307.62-0.44 308.56 0.56 310.32 0.56L310.32 0.56Q311.42 0.56 312.11 0.48 312.81 0.39 313.91 0.1L313.91 0.1 314.18-1.93 313.08-2.17Q312.03-2.42 311.53-2.62 311.03-2.83 310.72-3.43 310.42-4.03 310.42-5.25L310.42-5.25 310.42-31.03 309.9-31.62 303.12-31.03 302.78-29.2 306.49-27.86 306.49-24.02 306.78-20.9 306.61-20.9Q306-21.34 304.8-21.66 303.61-21.97 302.41-21.97L302.41-21.97Q299.87-21.97 297.39-20.36 294.91-18.75 293.33-15.94 291.74-13.13 291.74-9.74L291.74-9.74Q291.74-6.49 292.8-4.17 293.86-1.86 295.68-0.67 297.5 0.51 299.7 0.51L299.7 0.51ZM301.24-19.58Q302.53-19.58 304.03-18.68 305.53-17.77 306.46-16.26L306.46-16.26 306.46-4.81Q305.75-3.98 304.3-3.27 302.85-2.56 301.43-2.56L301.43-2.56Q299.87-2.56 298.65-3.55 297.43-4.54 296.73-6.51 296.04-8.47 296.04-11.28L296.04-11.28Q296.04-15.06 297.28-17.32 298.53-19.58 301.24-19.58L301.24-19.58ZM337.85 0.59Q340.25 0.59 342.46-0.17 344.66-0.93 346.37-2.09 348.08-3.25 349.13-4.52L349.13-4.52 348.28-6.37Q346.54-4.79 344.29-3.75 342.03-2.71 339.73-2.71L339.73-2.71Q336.75-2.71 334.24-4.26 331.73-5.81 330.2-8.83 328.67-11.84 328.67-16.06L328.67-16.06Q328.67-19.9 329.87-22.75 331.07-25.61 333.13-27.14 335.19-28.66 337.76-28.66L337.76-28.66Q340-28.66 341.58-27.98 343.15-27.29 344.05-26.12L344.05-26.12 345.08-20.75 347.23-20.43 347.98-28.54Q346.32-29.81 344.03-30.4 341.73-30.98 339.15-30.98L339.15-30.98Q333.9-30.98 330.36-28.45 326.82-25.93 325.13-22.11 323.45-18.29 323.45-14.38L323.45-14.38Q323.45-9.69 325.44-6.3 327.43-2.91 330.72-1.16 334.02 0.59 337.85 0.59L337.85 0.59ZM349.33 0L361 0 361.29-1.95 357.41-2.83 357.41-31.13 356.8-31.71 349.76-31.18 349.47-29.32 353.33-28 353.33-2.83 349.59-1.93 349.33 0ZM368.24-26.12Q369.02-26.12 369.72-26.53 370.42-26.93 370.82-27.61 371.22-28.3 371.22-29.1L371.22-29.1Q371.22-30.27 370.34-31.08 369.46-31.88 368.24-31.88L368.24-31.88Q367.07-31.88 366.21-31.09 365.34-30.3 365.34-29.15L365.34-29.15Q365.34-28.34 365.73-27.65 366.12-26.95 366.79-26.54 367.46-26.12 368.24-26.12L368.24-26.12ZM362.43 0L374.15 0 374.42-1.95 370.51-2.83 370.51-21 369.9-21.61 363.04-21.04 362.73-19.19 366.41-17.85 366.41-2.83 362.73-1.93 362.43 0ZM385.16 0.73Q387.55 0.73 389.64-0.13 391.73-1 393.19-2.54L393.19-2.54 392.68-3.83Q391.48-3.2 390.58-2.91 389.68-2.61 388.99-2.55 388.31-2.49 387.14-2.49L387.14-2.49Q384.99-2.49 383.49-3.72 381.99-4.96 381.21-6.88 380.42-8.81 380.33-10.86L380.33-10.86 392.14-11.01Q392.29-11.65 392.41-12.63 392.53-13.62 392.53-14.18L392.53-14.18Q392.53-16.67 391.67-18.42 390.8-20.17 389.31-21.06 387.82-21.95 386.01-21.95L386.01-21.95Q383.57-21.95 381.25-20.56 378.93-19.17 377.46-16.55 375.98-13.94 375.98-10.45L375.98-10.45Q375.98-6.91 377.27-4.37 378.57-1.83 380.68-0.55 382.79 0.73 385.16 0.73L385.16 0.73ZM384.82-19.56Q388.19-19.56 388.19-15.01L388.19-15.01Q388.19-14.65 388.15-14.12 388.11-13.6 388.04-13.33L388.04-13.33 380.37-12.77Q380.5-15.01 381.17-16.54 381.84-18.07 382.82-18.81 383.79-19.56 384.82-19.56L384.82-19.56ZM406.5 0L406.84-1.93 403.2-2.78 403.2-16.48Q404.1-17.48 405.37-18.03 406.64-18.58 408.01-18.58L408.01-18.58Q409.94-18.58 411.1-17.47 412.26-16.36 412.26-14.09L412.26-14.09 412.26-2.78 408.89-1.78 408.64 0 419.61 0 419.85-1.93 416.33-2.78 416.33-15.04Q416.33-18.33 414.82-20.14 413.31-21.95 410.45-21.95L410.45-21.95Q408.3-21.95 406.4-20.85 404.49-19.75 403.1-18.09L403.1-18.09 402.86-18.09 403.27-21.22 402.86-21.68 395.58-20.73 395.34-18.87 399.1-17.6 399.1-2.78 395.41-1.78 395.17 0 406.5 0ZM423.92-18.63L423.83-6.35Q423.8-2.54 425.18-0.99 426.56 0.56 429.03 0.56L429.03 0.56Q431.08 0.56 432.79-0.39 434.5-1.34 435.64-3.03L435.64-3.03 435.13-4.35Q435.13-4.32 434.56-3.96 433.98-3.59 433.2-3.28 432.42-2.98 431.62-2.98L431.62-2.98Q430.32-2.98 429.54-3.42 428.76-3.86 428.39-4.91 428.03-5.96 428.03-7.79L428.03-7.79 428.1-18.58 434.84-18.58 435.06-20.73 428.15-20.73 428.15-26.54 426.85-26.54Q425.54-24.73 423.92-22.95 422.31-21.17 420.82-19.95L420.82-19.95 420.82-18.63 423.92-18.63Z" opacity="1" transform="matrix(1,0,0,1,0,0)" fill="#ffffff" class="slogan-text-1" data-fill-palette-color="secondary" id="text-1"></path></svg></g></svg></g></svg></g></svg></g><g><svg viewBox="0 0 224.25583774323357 223.84559315209316" height="223.84559315209316" width="224.25583774323357"><g><svg xmlns="http://www.w3.org/2000/svg" data-name="Layer 1" viewBox="21.592296600341797 21.65352439880371 56.82551956176758 56.72156524658203" x="0" y="0" height="223.84559315209316" width="224.25583774323357" class="icon-icon-0" data-fill-palette-color="accent" id="icon-0"><path d="M46.88 53.59a1 1 0 0 0 0 1.44 8.7 8.7 0 0 1 0 12.29 1 1 0 1 0 1.44 1.44 10.73 10.73 0 0 0 0-15.17A1 1 0 0 0 46.88 53.59Z" fill="#ffffff" data-fill-palette-color="accent"></path><path d="M76.4 23.61a0.9 0.9 0 0 0-0.19-0.15 5.52 5.52 0 0 0-4.51-1.79 6.27 6.27 0 0 0-3.64 2 5.29 5.29 0 0 0-0.45-0.53 5 5 0 0 0-5-1.25 5.44 5.44 0 0 0-4.12 3.7 8.24 8.24 0 0 0-0.4 1.86 6.2 6.2 0 0 0-4.81 4.86c-0.47 2.8 0.48 4.3 1.3 5a6.22 6.22 0 0 0-0.48 1.44 5.45 5.45 0 0 0 1.15 4.48l-4.06 4.07-0.07 0.06c-0.41-0.36-0.84-0.71-1.28-1a0.34 0.34 0 0 0 0-0.1V43.68a5.12 5.12 0 0 0 2.84-1.6 1 1 0 1 0-1.5-1.38 3 3 0 0 1-1.33 0.88l0-11.22a1 1 0 0 0-1-1h0a1 1 0 0 0-1 1l0 11.11c-1.62-0.86-2.68-3.56-3-4.71a1 1 0 0 0-0.64-0.7s-2.7-1-2.7-3.35 3-3.69 3.07-3.7a1 1 0 0 0 0.63-0.9 7 7 0 0 1 0.57-2.34 3.08 3.08 0 0 1 3-2 3.22 3.22 0 0 1 3.06 1.75 5.35 5.35 0 0 1 0.61 2 1 1 0 1 0 2-0.14 7.33 7.33 0 0 0-0.81-2.75 5.23 5.23 0 0 0-4.89-2.89A5.13 5.13 0 0 0 43.92 25a9 9 0 0 0-0.67 2.41c-1.18 0.63-3.76 2.34-3.76 5.31s2.47 4.54 3.56 5.06c0.45 1.36 1.92 5.13 4.81 5.87v1.44A17.15 17.15 0 0 0 27.8 48a16.84 16.84 0 0 0-3 4 1.06 1.06 0 0 0-0.18 0.33 17.1 17.1 0 0 0-0.71 1.57 16.89 16.89 0 0 0-1.2 6.67v0a15.26 15.26 0 0 0 0.12 1.64A24.83 24.83 0 0 1 23 65.65a55 55 0 0 1-1.36 10.48 1.81 1.81 0 0 0 0.49 1.7 1.84 1.84 0 0 0 1.28 0.53 1.4 1.4 0 0 0 0.41 0A55.13 55.13 0 0 1 34.33 77a25 25 0 0 1 3.45 0.2c0.54 0.06 1.1 0.1 1.66 0.11h0A17.11 17.11 0 0 0 54.91 52.13h1.46c0.75 2.89 4.51 4.36 5.88 4.81a5.76 5.76 0 0 0 5.06 3.55c3 0 4.68-2.58 5.31-3.76A9.41 9.41 0 0 0 75 56.06a5.13 5.13 0 0 0 3.27-4.87 5.23 5.23 0 0 0-2.89-4.89 7.66 7.66 0 0 0-2.76-0.82 1 1 0 0 0-0.13 2 5.43 5.43 0 0 1 2 0.61 3.22 3.22 0 0 1 1.76 3.06 3.06 3.06 0 0 1-2 3 7.09 7.09 0 0 1-2.33 0.58 1 1 0 0 0-0.91 0.63s-1.3 3.07-3.69 3.07S64 55.86 64 55.75a1 1 0 0 0-0.7-0.65c-1.08-0.28-3.83-1.36-4.71-3l11.11 0a1 1 0 0 0 0-2h0l-11.21 0a3.08 3.08 0 0 1 0.87-1.33 1 1 0 0 0-1.38-1.5 5.05 5.05 0 0 0-1.59 2.83H53.63a15.59 15.59 0 0 0-1-1.28l0.07-0.06 4.08-4.08a5.46 5.46 0 0 0 4.49 1.16 5.63 5.63 0 0 0 1.44-0.49 4.68 4.68 0 0 0 3.64 1.43 9.37 9.37 0 0 0 1.42-0.12 6.17 6.17 0 0 0 4.85-4.81 8.13 8.13 0 0 0 1.86-0.4 5.45 5.45 0 0 0 3.7-4.13 5 5 0 0 0-1.25-5 5.21 5.21 0 0 0-0.52-0.45 6.27 6.27 0 0 0 2-3.65A5.62 5.62 0 0 0 76.4 23.61ZM43 73.65a7.68 7.68 0 0 0 0 1.26 15.74 15.74 0 0 1-3.44 0.32h0c-0.49 0-1 0-1.46-0.11a25.82 25.82 0 0 0-3.73-0.2 56.44 56.44 0 0 0-10.56 1.33A56.18 56.18 0 0 0 25.07 65.7 27.34 27.34 0 0 0 24.86 62a14.52 14.52 0 0 1-0.1-1.47h0a14.93 14.93 0 0 1 0.48-4.13 7.42 7.42 0 0 0 1.52 2.17 6 6 0 0 0 3.12 1.3 6.83 6.83 0 0 1 3.61 1.55 3.51 3.51 0 0 1 0.82 2.81A5 5 0 0 0 35.55 68 4.73 4.73 0 0 0 39.3 69.2a3.45 3.45 0 0 1 2.86 0.85C43.19 71.08 43.08 72.39 43 73.65ZM54.87 60.18A15.09 15.09 0 0 1 45 74.33c0-0.17 0-0.35 0-0.51a6 6 0 0 0-1.41-5.21 5.12 5.12 0 0 0-4-1.45h-0.31c-1.09 0-1.73 0-2.3-0.58s-0.62-1.27-0.64-2.42a5.4 5.4 0 0 0-1.42-4.22 8.67 8.67 0 0 0-4.61-2.1 5.1 5.1 0 0 1-2.12-0.75A5.39 5.39 0 0 1 26.59 53a15.06 15.06 0 0 1 28.28 7.23ZM76.32 28c-0.2 1.84-2.29 3.18-2.31 3.2a1 1 0 0 0-0.47 1 1 1 0 0 0 0.73 0.84 3.26 3.26 0 0 1 1.25 0.79 3.11 3.11 0 0 1 0.64 3 3.37 3.37 0 0 1-2.33 2.62 5.91 5.91 0 0 1-2 0.34 1 1 0 0 0-1.08 0.92s-0.37 3.4-3.32 3.89c-2.69 0.45-3.37-0.82-3.46-1a1 1 0 0 0-0.67-0.65 1 1 0 0 0-0.93 0.21 3.43 3.43 0 0 1-4.13 0l2.1-2.11 4.37 0.09h0a1 1 0 0 0 0-2l-2.41 0 3.33-3.33 4.29 0.15a1 1 0 1 0 0.07-2l-2.39-0.08 1.94-1.94a1 1 0 1 0-1.44-1.44l-1.94 1.94L66.08 30a1 1 0 0 0-2 0.07l0.15 4.27-3.33 3.32 0-2.38a1 1 0 0 0-2 0l0.09 4.34-2.12 2.12a3.42 3.42 0 0 1 0-4.11 1.05 1.05 0 0 0 0.2-0.92 1 1 0 0 0-0.64-0.68s-1.48-0.63-1-3.47 3.76-3.3 3.89-3.32a1 1 0 0 0 0.92-1.07 5.72 5.72 0 0 1 0.31-2 3.42 3.42 0 0 1 2.64-2.39 3.15 3.15 0 0 1 3 0.64 3.34 3.34 0 0 1 0.79 1.25h0a1 1 0 0 0 1.84 0.27s1.36-2.11 3.2-2.32a3.76 3.76 0 0 1 3 1.36 0.75 0.75 0 0 0 0.17 0.14A3.65 3.65 0 0 1 76.32 28Z" fill="#ffffff" data-fill-palette-color="accent"></path></svg></g></svg></g></svg></g><defs></defs></svg><rect width="395.5199999999999" height="136.90899472949133" fill="none" stroke="none" visibility="hidden"></rect></g></svg></g></svg>