<?xml version="1.0" standalone="no"?>
<svg viewBox="0 0 200 200" xmlns="http://www.w3.org/2000/svg">
  <path fill="#6E9052" d="M45.4,-78.7C59.7,-70.4,72.6,-59.9,81,-46.4C89.4,-32.9,93.3,-16.4,93.1,-0.1C93,16.3,88.7,32.5,80.3,46.1C72,59.6,59.4,70.4,45.4,77.9C31.3,85.3,15.6,89.3,-0.5,90.1C-16.5,90.9,-33.1,88.4,-46.9,80.8C-60.6,73.2,-71.6,60.5,-79.2,46.1C-86.8,31.8,-91,15.9,-90.3,0.4C-89.5,-15.1,-84,-30.2,-75.6,-43.1C-67.2,-56.1,-56,-66.9,-43,-75.8C-29.9,-84.8,-15,-91.8,0.3,-92.3C15.6,-92.9,31.2,-86.9,45.4,-78.7Z" transform="translate(100 100)" />
</svg>
