<svg xmlns="http://www.w3.org/2000/svg" width="40.612" height="40.603" viewBox="0 0 40.612 40.603"><defs><style>.a{fill:#fafafa;}</style></defs><path class="a" d="M20.305,12.129a10.41,10.41,0,1,0,10.41,10.41A10.394,10.394,0,0,0,20.305,12.129Zm0,17.178a6.768,6.768,0,1,1,6.768-6.768A6.78,6.78,0,0,1,20.305,29.307ZM33.57,11.7a2.428,2.428,0,1,1-2.428-2.428A2.423,2.423,0,0,1,33.57,11.7Zm6.895,2.464c-.154-3.253-.9-6.134-3.28-8.508S31.93,2.543,28.677,2.38c-3.352-.19-13.4-.19-16.752,0-3.244.154-6.125.9-8.508,3.271S.3,10.906.137,14.159c-.19,3.352-.19,13.4,0,16.752.154,3.253.9,6.134,3.28,8.508s5.255,3.117,8.508,3.28c3.352.19,13.4.19,16.752,0,3.253-.154,6.134-.9,8.508-3.28s3.117-5.255,3.28-8.508c.19-3.352.19-13.391,0-16.743Zm-4.331,20.34a6.852,6.852,0,0,1-3.86,3.86c-2.673,1.06-9.015.815-11.969.815s-9.3.236-11.969-.815a6.852,6.852,0,0,1-3.86-3.86c-1.06-2.673-.815-9.015-.815-11.969s-.236-9.3.815-11.969a6.852,6.852,0,0,1,3.86-3.86C11.01,5.651,17.352,5.9,20.305,5.9s9.3-.236,11.969.815a6.852,6.852,0,0,1,3.86,3.86c1.06,2.673.815,9.015.815,11.969S37.194,31.844,36.134,34.508Z" transform="translate(0.005 -2.238)"/></svg>