<svg xmlns="http://www.w3.org/2000/svg" width="40.612" height="32.984" viewBox="0 0 40.612 32.984"><defs><style>.a{fill:#fafafa;}</style></defs><path class="a" d="M36.438,11.6c.026.361.026.722.026,1.082,0,11-8.375,23.682-23.682,23.682A23.521,23.521,0,0,1,0,32.629a17.218,17.218,0,0,0,2.01.1,16.669,16.669,0,0,0,10.333-3.556A8.338,8.338,0,0,1,4.561,23.4a10.5,10.5,0,0,0,1.572.129,8.8,8.8,0,0,0,2.19-.283A8.325,8.325,0,0,1,1.649,15.08v-.1a8.383,8.383,0,0,0,3.762,1.056A8.336,8.336,0,0,1,2.835,4.9,23.659,23.659,0,0,0,20,13.611a9.4,9.4,0,0,1-.206-1.907A8.331,8.331,0,0,1,34.2,6.009,16.387,16.387,0,0,0,39.478,4a8.3,8.3,0,0,1-3.659,4.587A16.686,16.686,0,0,0,40.612,7.3a17.892,17.892,0,0,1-4.174,4.3Z" transform="translate(0 -3.381)"/></svg>